<?xml version="1.0" standalone="no"?>
<!DOCTYPE svg PUBLIC "-//W3C//DTD SVG 20010904//EN"
 "http://www.w3.org/TR/2001/REC-SVG-20010904/DTD/svg10.dtd">
<svg version="1.0" xmlns="http://www.w3.org/2000/svg"
 width="512.000000pt" height="512.000000pt" viewBox="0 0 512.000000 512.000000"
 preserveAspectRatio="xMidYMid meet">
<metadata>
Created by potrace 1.14, written by Peter Selinger 2001-2017
</metadata>
<g transform="translate(0.000000,512.000000) scale(0.100000,-0.100000)"
fill="#000000" stroke="none">
<path d="M1230 4900 c-72 -20 -129 -71 -150 -136 -7 -20 -13 -91 -14 -158 l-1
-121 -50 -7 c-167 -24 -307 -141 -355 -295 -20 -64 -20 -89 -20 -1713 0 -1030
4 -1667 10 -1699 29 -155 155 -288 311 -331 63 -18 3108 -18 3190 -1 123 26
251 137 302 261 l22 55 3 1686 c2 1671 2 1686 -18 1745 -29 83 -85 160 -153
211 -61 44 -164 83 -221 83 l-32 0 -1 133 c-1 154 -12 187 -74 240 -103 89
-260 61 -325 -57 -25 -46 -27 -57 -28 -182 l0 -134 -1067 0 -1066 0 0 128 c0
139 -15 193 -64 239 -51 46 -138 69 -199 53z"/>
</g>
</svg>
